<svg xmlns="http://www.w3.org/2000/svg" width="700" height="700" viewBox="0 0 700 700">
  <defs>
    <style>
      .cls-1 {
        fill: #d5cec7;
      }

      .cls-2 {
        fill: none;
        stroke: #000;
        stroke-width: 9px;
        fill-rule: evenodd;
      }
    </style>
  </defs>
  <circle class="cls-1" cx="350.469" cy="350.469" r="349.469"/>
  <path id="Color_Fill_4" data-name="Color Fill 4" class="cls-2" d="M315.432,326.492c0-15.749,23.291-26.423,23.291-43.088,0-12.784-19.972-36.1-31.442-36.1-11.113,0-34.975,24.124-34.975,41.346,0,50.817,57.035,143.812,126.971,143.812,21.358,0,43.087-23.117,43.087-31.442,0-12.206-24.363-33.771-34.935-33.771-13.335,0-28.527,16.3-39.594,16.3C350.761,383.553,315.432,340.508,315.432,326.492Z"/>
  <path class="cls-2" d="M269.659,510.3l-119.9,30.964,33.159-119.312M182.4,425.37A193.52,193.52,0,0,1,162.694,340c0-107.312,86.994-194.306,194.306-194.306S551.306,232.688,551.306,340,464.312,534.306,357,534.306a193.459,193.459,0,0,1-90.725-22.437"/>
</svg>
