<svg width="76" height="42" fill="none" xmlns="http://www.w3.org/2000/svg"><path d="M32.387.015c-.041.025-.366.322-.722.674-.355.347-.98.962-1.392 1.367-.412.4-1.247 1.226-1.855 1.831a439.91 439.91 0 0 1-3.222 3.174c-.485.469-1.283 1.26-1.773 1.758-.495.498-.964.962-1.046 1.03-.078.073-.145.152-.145.171 0 .024.758.04 1.69.03l1.697-.015.639-.62c.536-.518 3.299-3.174 8.716-8.38.562-.536 1.01-.98 1-.99-.036-.035-3.515-.064-3.587-.03Zm7.948.108-.84.029-1.783 1.709c-1.815 1.738-8 7.632-12.887 12.28l-2.696 2.564 1.794-.015 1.789-.015 2.087-1.987a478.061 478.061 0 0 0 3.088-2.964c.551-.537 1.773-1.714 2.706-2.612.938-.899 2.247-2.158 2.912-2.798.66-.64 1.253-1.191 1.315-1.23.108-.069.474-.103 2.299-.22.438-.03.907-.064 1.046-.083.145-.015.242-.01.242.02 0 .029-.237.278-.53.556-.29.278-1.12 1.089-1.84 1.802-.722.713-1.985 1.953-2.81 2.759-.82.805-1.763 1.728-2.088 2.05-.324.323-1 .982-1.495 1.465-.494.484-1.18 1.152-1.52 1.49-.34.336-.98.961-1.418 1.391-.438.43-1.391 1.362-2.113 2.075-.722.713-1.696 1.665-2.165 2.124-.469.454-1.165 1.138-1.546 1.514-.382.376-.85.83-1.042 1.01a4.21 4.21 0 0 0-.35.347c0 .01.593.035 1.32.054l1.32.034.52-.478a1475.1 1475.1 0 0 0 5.757-5.235c.949-.869 1.8-1.62 1.882-1.67.124-.073.258-.092.67-.092.283 0 .933-.025 1.443-.054.516-.03.995-.044 1.078-.034.139.014.139.014.046.112l-.81.855a63.214 63.214 0 0 1-2.015 2.05c-.34.337-1.258 1.236-2.036 2.002a1727.37 1727.37 0 0 1-4.82 4.712c-.932.913-1.932 1.89-2.216 2.173-.289.283-.84.83-1.237 1.22-.392.391-.784.772-.866.855l-.155.147 1.67.014 1.67.01 1.624-1.548c1.433-1.367 5.923-5.688 8.583-8.256 1.314-1.27 1.19-1.192 1.948-1.207 2.315-.043 2.768-.043 2.768 0 0 .064-1.129 1.182-3.196 3.174-.897.86-2.355 2.276-3.247 3.15a615.113 615.113 0 0 1-4.016 3.916c-.412.395-.732.732-.721.742.015.014 2.995.03 6.618.034 5.897.01 6.691 0 7.475-.073 1.71-.166 2.685-.415 3.969-1.02 1.103-.523 1.933-1.1 2.778-1.944.665-.66 1.057-1.192 1.5-2.021a8.628 8.628 0 0 0 .86-2.33c.099-.468.12-.708.12-1.601 0-.918-.016-1.118-.12-1.582-.401-1.763-1.355-3.277-2.767-4.37-.712-.552-1.593-1.08-1.804-1.08a.124.124 0 0 1-.109-.073c-.02-.053.14-.23.51-.561 1.083-.977 1.867-2.056 2.305-3.174 1.03-2.647.474-5.342-1.505-7.349-.779-.786-1.578-1.342-2.645-1.83-1.721-.797-3.366-1.04-6.304-.933Zm-29.34 37.51c0 3.803-.036 3.461.387 3.461.118 0 .283-.014.366-.029l.15-.03v-2.29c0-1.493.015-2.29.05-2.29.032 0 .13.098.222.22.16.196.552.625 1.505 1.636.191.2.506.542.701.757.191.215.655.713 1.026 1.104l.892.952.216.239v-6.85l-.32-.02c-.448-.025-.479-.01-.479.263-.005.132-.01 1.182-.015 2.34-.01 1.655-.026 2.099-.072 2.084-.036-.014-.17-.141-.299-.288-.258-.303-3.66-3.974-4.067-4.39L11 34.234l-.005 3.398Zm14.5-3.301c-.634.132-1.01.41-1.294.952-.118.224-.134.327-.139.708 0 .395.015.469.155.727.263.493.567.742 1.459 1.177.644.313.835.43 1.04.645.31.317.382.517.346.927-.03.381-.196.616-.562.786-.335.162-.546.181-.897.084-.242-.064-.355-.132-.562-.333a2.52 2.52 0 0 1-.381-.488c-.067-.127-.144-.23-.17-.23-.031 0-.222.06-.428.128-.371.127-.376.132-.33.254.253.63.794 1.24 1.289 1.45.448.19.892.254 1.304.185.448-.073.675-.185 1.01-.503.346-.327.49-.59.598-1.079.186-.86-.258-1.762-1.129-2.28a16.51 16.51 0 0 0-.86-.454c-.712-.342-.903-.508-.985-.85-.052-.23-.046-.278.036-.444.134-.254.505-.469.86-.498.408-.03.66.059.985.337.18.156.31.234.35.21.11-.059.61-.528.61-.567 0-.02-.11-.136-.243-.258-.32-.293-.866-.538-1.34-.606a4.34 4.34 0 0 0-.387-.049c-.01 0-.16.035-.335.069Zm9.211-.04c-.886.108-1.453.372-2.082.972-.402.376-.686.825-.887 1.387-.139.386-.15.469-.15 1.147 0 .64.016.777.125 1.075.345.966 1.036 1.743 1.938 2.163.335.16 1.015.303 1.428.303.407 0 .969-.098 1.33-.23.51-.19.515-.195.515-.757 0-.263-.016-.478-.041-.478-.021 0-.119.053-.217.112-.417.269-1.247.459-1.758.405-1.288-.141-2.206-.967-2.391-2.153-.227-1.45.551-2.627 1.964-2.974.175-.044.433-.078.577-.078.314 0 1.118.19 1.526.361.165.069.309.127.32.127.01 0 .02-.214.02-.483v-.483l-.258-.103c-.546-.224-1.48-.371-1.959-.312Zm5.918.04c-.974.175-1.711.649-2.284 1.465-.639.908-.793 2.06-.417 3.173.18.537.453.962.881 1.367.701.665 1.284.933 2.15.982 1.788.112 3.304-1.065 3.623-2.803.253-1.367-.113-2.456-1.128-3.364-.804-.723-1.784-1.006-2.825-.82Zm1.14.927c.417.103.798.298 1.107.567.68.586.949 1.318.856 2.31-.072.741-.484 1.406-1.15 1.855-.401.268-.726.376-1.221.405a2.603 2.603 0 0 1-2.624-1.84c-.288-.982-.015-2.012.717-2.686a2.507 2.507 0 0 1 2.314-.61Zm22.19-.937c.015.049.03 1.596.03 3.432v3.34h.33c.547 0 .496.254.496-2.373 0-1.274.02-2.314.046-2.314.02 0 .15.127.278.283.13.156.634.713 1.119 1.235.484.523 1.345 1.44 1.907 2.046a117.6 117.6 0 0 1 1.134 1.23.48.48 0 0 0 .144.138c.031 0 .042-6.705.016-6.841-.005-.04-.603-.059-.717-.025-.082.025-.087.2-.087 2.325 0 1.264-.016 2.333-.031 2.377-.02.059-.088.005-.284-.21-.139-.16-.587-.649-1-1.093-.412-.44-.907-.982-1.108-1.197-1.01-1.113-2.19-2.368-2.19-2.334 0 .02-.027.005-.057-.034-.047-.058-.052-.058-.026.015Zm-17.072.654c-.093.371-.397 1.597-.68 2.725-.65 2.578-.79 3.15-.795 3.271-.005.088.026.098.382.098h.381l.165-.635c.093-.351.237-.942.33-1.318.093-.376.196-.796.237-.928.036-.137.103-.41.145-.61.134-.655.237-.796.34-.44.056.196.448 1.201 1.082 2.759.175.43.361.903.413 1.05.103.307.17.351.247.161.345-.83 1.392-3.457 1.454-3.652.036-.108.113-.284.17-.391.108-.195.108-.195.144-.049.083.327.376 1.533.644 2.661.16.66.31 1.245.336 1.309.04.102.072.112.407.102.2-.004.376-.024.386-.044.016-.019-.01-.175-.051-.346-.377-1.514-1.016-4.063-1.273-5.103-.32-1.27-.325-1.279-.413-1.142-.046.078-.108.21-.134.302-.026.088-.154.416-.283.723-.34.83-.928 2.3-1.145 2.857-.34.893-.33.883-.464.522-.164-.435-.433-1.108-.984-2.476-.3-.752-.603-1.508-.675-1.684a1.987 1.987 0 0 0-.165-.357c-.02-.02-.114.264-.201.635Zm13.232-.483c-.031.097-.222.551-.418 1.01-.655 1.504-2.32 5.42-2.345 5.503-.026.079.015.088.386.088.268 0 .428-.02.46-.063.025-.03.18-.376.34-.767.164-.39.314-.737.334-.766.031-.05.371-.064 1.366-.074.727-.005 1.335.005 1.356.02.015.02.186.39.381.83l.346.796.422.015c.227.01.418-.005.418-.03 0-.058-.64-1.557-1.562-3.672-.892-2.046-1.087-2.49-1.185-2.744-.14-.346-.217-.386-.3-.146Zm.263 2.046c0 .058.144.405.334.82.238.503.5 1.138.506 1.216.01.093-.026.097-.97.083-.535-.01-.99-.025-1-.034-.01-.01.042-.147.114-.298.206-.44.5-1.128.634-1.5.15-.404.211-.492.31-.414.04.029.072.088.072.127ZM.016 34.469c-.016.014-.02 1.513-.01 3.33l.01 3.31.943-.03c1.093-.029 1.33-.082 1.856-.41.665-.42.948-.917.902-1.596a1.918 1.918 0 0 0-.145-.606c-.144-.322-.618-.747-.964-.869-.134-.049-.257-.093-.268-.102-.01-.005.13-.152.315-.323.381-.351.557-.703.557-1.103 0-.723-.64-1.358-1.531-1.514-.304-.058-1.63-.127-1.665-.088Zm1.618.868c.284.074.593.362.65.616.056.234 0 .59-.119.766-.154.225-.443.381-.845.474-.217.049-.413.078-.438.063-.052-.029-.057-1.943 0-1.992.04-.044.464-.005.752.073Zm.474 2.862c.815.376.975 1.103.372 1.68-.279.263-.619.38-1.15.395l-.464.015-.015-1.143-.01-1.142.5.034c.38.029.566.068.767.16Zm2.96-.42v3.32l1.015-.014c.562-.005 1.211-.02 1.448-.03l.423-.02v-.385c0-.273-.02-.386-.062-.386a150.42 150.42 0 0 1-1.881-.044c-.052-.005-.067-.61-.067-2.856 0-2.852 0-2.852-.114-2.881a2.856 2.856 0 0 0-.438-.03h-.32l-.005 3.326Zm3.788-3.267c-.016.035-.02 1.524-.01 3.31l.01 3.248h.804l-.005-3.272v-3.271l-.242-.034c-.387-.05-.531-.044-.557.02Zm8.995 3.262v3.33l1.221-.02c.975-.019 1.284-.043 1.51-.107 1.052-.317 1.794-1.02 2.202-2.085.123-.327.139-.43.139-1.094.005-.683-.005-.761-.144-1.142-.17-.474-.645-1.177-.975-1.445-.345-.288-.953-.552-1.443-.63-.237-.04-.897-.088-1.469-.108l-1.036-.034-.005 3.335Zm2.37-2.339c.671.127 1.274.571 1.583 1.172.227.435.289.747.263 1.333-.036.776-.304 1.304-.892 1.748-.34.264-.69.405-1.17.474a8.339 8.339 0 0 1-1.211.058c-.119-.005-.119-.005-.119-2.412 0-1.328.016-2.427.042-2.446.046-.049 1.129.005 1.505.073Zm33.63-.937c-.01.01-.02 1.504-.02 3.31V41.1l.401-.014.397-.015.016-1.348.01-1.347.515-.035c.99-.063 1.593-.346 1.985-.932.752-1.118.15-2.495-1.242-2.832-.284-.069-2-.132-2.062-.078Zm1.783.844c.371.064.634.23.81.513.123.195.144.283.139.557-.016.703-.449 1.069-1.361 1.142-.186.015-.382.035-.438.04-.098.01-.103-.025-.119-1.114-.005-.615 0-1.152.016-1.186.025-.069.397-.05.953.048Zm14.82-.85c-.016.015.02.094.072.177.052.083.175.293.278.468.098.176.418.733.712 1.245.288.508.628 1.109.752 1.333l.222.41V41.1l.402-.014.397-.015.026-1.538.025-1.538.29-.489.788-1.367c.278-.483.598-1.03.706-1.215.113-.186.2-.362.2-.396 0-.049-.102-.059-.422-.04-.237.015-.443.045-.469.064-.02.015-.36.591-.752 1.275-.392.683-.743 1.24-.774 1.24-.036 0-.108-.078-.16-.17-1.025-1.769-1.355-2.33-1.391-2.364-.052-.049-.856-.078-.902-.04Z" fill="#ffffff"/></svg>