<svg width="492" height="78" fill="none" xmlns="http://www.w3.org/2000/svg"><path d="M271.243.52c-2.365.71-5.007 2.444-6.231 4.1-1.446 1.996-2.002 3.835-1.891 6.463.111 1.891.25 2.443 1.14 4.15 1.029 1.945 2.058 2.996 4.534 4.52 2.281 1.392 7.176 1.576 9.957.367 2.031-.867 4.367-2.995 5.507-4.965.918-1.603.946-1.76.946-4.545 0-2.654-.083-3.022-.807-4.44-1.474-2.785-4.116-4.782-7.648-5.78-1.947-.552-3.366-.526-5.507.13Zm-36.798.264c-1.613.262-5.618.893-8.9 1.392-9.207 1.392-13.128 1.997-17.523 2.759l-4.033.683-.083 1.103c-.084.999-.028 1.104.695 1.235 1.057.21 6.981.867 9.401 1.077 1.085.08 2.225.21 2.587.29.611.104.611.104.611 31.343v31.239l-1.307.394c-.751.236-2.837.788-4.672 1.26-4.284 1.078-4.367 1.13-4.256 2.155l.083.841 20.666.079 20.638.052v-1.05c0-.579-.056-1.051-.139-1.051-.278 0-8.928-2.391-9.513-2.628-.639-.262-.639-.262-.639-35.994 0-28.427-.084-35.731-.334-35.705-.195.026-1.669.263-3.282.526ZM26.398 26.426c-7.648.762-12.349 2.338-16.938 5.754-5.146 3.783-8.316 9.642-9.234 16.946-.473 3.783-.167 9.957.584 12.716 1.947 6.936 6.453 11.587 13.545 14.03 5.59 1.944 14.463 2.6 23.141 1.734 4.784-.473 7.983-1.13 11.431-2.312 3.7-1.287 4.173-1.524 4.284-2.128.056-.316.39-2.102.695-3.968.306-1.891.89-5.123 1.28-7.198.389-2.076.695-4.125.695-4.545 0-.762 0-.762-2.392-.684l-2.42.08-1.28 2.89c-3.921 8.748-7.453 12.61-12.488 13.688-2.364.499-4.811.341-6.647-.42-1.474-.605-3.421-2.313-4.534-3.916-2.253-3.336-3.532-9.93-3.254-16.972.445-11.402 3.366-18.365 8.734-20.782 4.144-1.839 8.121-.71 10.875 3.074.945 1.34 2.753 5.045 3.532 7.33.974 2.811 1.03 2.89 3.004 2.89 3.282 0 2.976.736 2.976-7.383 0-8.223.5-7.33-4.895-8.617-7.204-1.708-16.188-2.654-20.694-2.207Zm290.153.21c-7.315.893-13.017 4.23-15.409 9.064-1.418 2.812-1.696 4.362-1.557 8.171.111 3.18.139 3.31 1.251 5.491 1.447 2.76 4.256 5.57 7.315 7.252 1.141.63 4.756 2.233 8.066 3.547 5.646 2.26 10.152 4.308 11.154 5.044 1.001.736 1.39 1.708 1.418 3.468 0 1.55-.083 1.865-.807 2.706-1.14 1.34-2.086 1.787-4.756 2.286-1.919.368-2.67.394-4.645.158-5.674-.736-8.149-2.496-10.763-7.62-1.419-2.785-3.867-8.512-4.228-9.826-.167-.71-.195-.71-2.531-.71h-2.364V65.1c0 8.775.027 9.458.5 9.59 5.174 1.392 11.098 2.417 16.577 2.916 11.265.998 17.662-.079 23.419-3.941 3.31-2.26 5.368-5.044 6.509-8.907.5-1.734.584-2.574.5-4.729-.166-3.415-.917-5.543-2.837-7.934-2.725-3.442-6.313-5.439-16.326-9.038-10.263-3.678-11.793-4.73-11.571-7.96.112-1.919.723-2.707 2.837-3.732 1.502-.735 1.836-.788 4.562-.788 3.782.026 5.618.63 7.704 2.628 1.558 1.445 3.533 4.965 5.007 8.8.389 1.078.89 2.05 1.057 2.155.445.29 3.059.263 3.838-.026.667-.236.667-.236.584-7.409-.056-3.94-.167-7.225-.223-7.278-.528-.499-10.152-2.312-14.796-2.784-4.59-.473-5.591-.473-9.485-.027Zm54.459.027c-9.262 1.313-15.019 5.91-16.577 13.215-1.084 5.202.418 9.957 4.284 13.636 2.698 2.548 4.589 3.573 13.35 7.12 10.709 4.36 11.459 4.86 11.459 7.75 0 3.258-1.78 4.782-6.313 5.412-1.836.263-2.643.237-4.756-.105-4.729-.788-7.26-2.522-9.401-6.542-1.419-2.627-4.061-8.696-4.534-10.378l-.334-1.13-2.42.08-2.419.078-.056 9.065c-.028 4.991.028 9.195.139 9.379.25.368 5.952 1.787 9.79 2.47 3.783.656 10.82 1.287 14.325 1.287 3.337 0 8.872-.788 10.986-1.55 2.169-.788 5.479-2.654 7.12-4.072 6.091-5.15 7.148-15.081 2.198-20.651-2.893-3.284-6.787-5.333-16.828-8.96-6.008-2.154-8.233-3.152-9.429-4.203-1.502-1.313-1.891-3.967-.778-5.517 2.113-3.022 9.345-3.468 13.406-.815 1.947 1.261 4.812 5.99 6.619 10.956.39 1.051.39 1.051 2.309 1.051 3.143 0 2.893.683 2.893-7.461 0-8.092.278-7.252-2.782-7.987-4.255-.999-8.761-1.787-12.432-2.155-4.701-.473-6.314-.473-9.819.027Zm66.753-.237c-8.038.762-10.652 1.235-13.879 2.443-6.063 2.234-10.235 5.833-12.711 10.904-2.225 4.571-3.226 8.985-3.254 14.319 0 11.113 4.089 17.497 13.74 21.333 5.479 2.18 17.05 3.127 26.451 2.18 5.34-.525 9.651-1.628 14.741-3.73 1.558-.657 1.558-.657 2.003-2.916.222-1.261.751-4.309 1.112-6.752.39-2.47.835-5.097 1.002-5.885.445-2.286.584-2.155-2.281-2.076-2.531.079-2.531.079-2.781.867-.863 2.627-3.7 8.013-5.452 10.378-2.753 3.652-5.952 5.622-10.041 6.095-4.283.526-7.565-.368-10.291-2.785-3.477-3.126-5.118-8.591-5.145-17.051 0-2.548.139-4.755.278-4.887.25-.236 3.31-.42 24.837-1.366 6.648-.289 12.183-.578 12.322-.657.389-.236.25-5.885-.195-7.856-1.112-4.886-4.366-8.643-9.011-10.377-4.367-1.603-15.548-2.759-21.445-2.181Zm5.313 4.283c.556.157 1.529.709 2.169 1.26 1.669 1.42 2.281 3.232 2.531 7.672.084 1.945.139 3.679.084 3.836-.056.158-1.502.42-3.227.605-8.455.893-12.878 1.287-13.017 1.13-.5-.5 1.085-7.12 2.225-9.38 1.28-2.575 2.309-3.652 4.228-4.572 1.836-.867 3.227-1.024 5.007-.552Zm37.187-4.1c-1.614.448-2.587 1.104-4.228 2.812-1.78 1.866-2.448 3.967-2.086 6.41.334 2.365.89 3.364 2.809 5.177 1.252 1.182 1.947 1.602 3.199 1.97 3.643 1.051 6.87.289 9.373-2.18 1.975-1.945 2.67-3.469 2.67-5.938 0-1.76-.111-2.286-.807-3.573-1.001-1.866-2.809-3.6-4.478-4.31-1.557-.682-4.672-.84-6.452-.367Zm5.284 1.525c1.808.42 3.95 2.47 4.645 4.387 1.14 3.232-.528 7.278-3.588 8.75-1.557.761-4.367.919-6.341.367-3.727-1.024-6.092-6.069-4.423-9.51.723-1.498 2.448-3.259 3.783-3.81 1.307-.578 3.977-.657 5.924-.184Zm-6.425 1.97c-.111.08-.194 2.207-.194 4.703 0 4.677.027 4.86 1.168 5.018.695.105.862-.341.806-1.997 0-.814.084-1.628.223-1.839.417-.604 1.251-.078 2.114 1.314 1.001 1.603 2.225 2.654 3.004 2.549.945-.132.834-.578-.501-2.181l-1.252-1.55.974-.946c1.863-1.813 1.808-3.915-.139-4.86-.835-.395-5.813-.579-6.203-.21Zm4.645 1.498c1.669.657 1.586 1.839-.167 2.68-.806.394-2.141.262-2.503-.263-.389-.552-.222-1.734.334-2.26.667-.63 1.085-.656 2.336-.157ZM86.476 26.899c-5.98.71-10.514 2.154-14.24 4.545-2.587 1.63-3.644 2.601-5.34 4.86-2.504 3.311-4.006 7.62-4.646 13.374-.278 2.522-.278 3.757 0 6.568.612 5.99 1.92 9.485 4.84 12.979 3.7 4.44 10.124 7.383 18.023 8.223 4.617.526 11.543.657 15.548.316 12.683-1.078 19.859-4.703 23.864-12.06 2.642-4.86 4.061-12.19 3.393-17.524-1.613-12.847-7.565-18.838-20.999-21.045-3.477-.578-16.41-.735-20.443-.236Zm12.683 4.282c2.309 1.13 3.811 3.416 4.979 7.567.612 2.26.723 3.31.862 8.25.306 9.984-.64 16.63-2.976 21.334-1.808 3.573-4.367 5.464-7.426 5.517-5.007.079-7.816-3.468-9.096-11.508-.611-3.783-.611-12.085 0-16.92 1.03-8.17 3.088-12.374 6.898-14.187 1.558-.762 1.92-.815 3.672-.71 1.224.053 2.364.316 3.087.657Zm167.55-1.629c-8.65 1.63-15.993 3.048-16.327 3.127-.528.105-.639.315-.639 1.182 0 .552.111 1.078.25 1.183.139.078 2.976.367 6.286.63 4.366.342 6.119.578 6.286.84.139.211.222 8.198.167 17.84l-.056 17.472-1.808.552c-1.001.315-3.31.945-5.146 1.418-1.835.5-3.421.999-3.532 1.156-.445.605-.222 1.472.417 1.603.334.079 9.763.105 20.916.079l20.304-.079.084-.84c.111-1-.306-1.21-4.117-2.155-1.307-.315-3.143-.815-4.061-1.104-1.613-.499-1.724-.578-1.891-1.497-.083-.526-.167-10.746-.167-22.726 0-21.728 0-21.728-.612-21.702-.361 0-7.704 1.366-16.354 3.021Zm-107.778-2.101c-.139.052-3.282.315-6.954.63-15.297 1.209-22 1.866-23.085 2.26-.25.105-.417.499-.417.92 0 .577.139.787.639.866 1.641.316 7.176 1.235 8.539 1.419l1.53.184.139 17.603c.139 17.445.139 17.63.779 19.153 1.168 2.942 3.338 4.94 6.453 5.964 2.225.736 7.37.972 10.541.5 5.563-.815 10.792-4.152 14.825-9.38.918-1.183 1.78-2.102 1.919-2.05.111.08.222 2.812.25 6.096 0 3.284.056 5.99.084 6.016.055.053 3.087-.394 6.731-.972 3.671-.578 7.732-1.209 9.039-1.419 5.062-.762 13.239-2.023 13.851-2.128.529-.105.612-.289.612-1.287s-.083-1.182-.612-1.314c-.556-.105-5.841-.946-8.483-1.34-.473-.052-.946-.289-1.029-.499-.083-.21-.139-9.458-.139-20.545 0-11.088 0-20.31-.028-20.493 0-.184-.167-.263-.334-.21-.194.052-2.559.288-5.229.525-8.427.683-20.387 1.813-22.723 2.128-1.113.158-1.196.21-1.196.998 0 .867 0 .867 3.282 1.55 1.78.368 3.894.789 4.644.894l1.391.21v13.137c0 13.136 0 13.136-.779 14.634-1.474 2.837-4.199 4.413-8.01 4.624-3.171.157-4.116-.237-5.034-2.129-.64-1.366-.64-1.366-.723-18.837-.028-9.616-.084-17.55-.139-17.63-.028-.078-.167-.13-.334-.078Z" fill="#fff"/></svg>