<svg width="25" height="45" viewBox="0 0 25 45" fill="none" xmlns="http://www.w3.org/2000/svg">
<path d="M16.8313 0.0273132C16.7239 0.032196 16.3284 0.0614929 15.9524 0.0907898C13.97 0.24704 12.1829 0.911102 10.6643 2.06833C8.41821 3.77731 7.18286 6.082 6.81665 9.22165C6.75317 9.78317 6.72876 10.5449 6.71411 12.8838C6.68969 15.833 6.68969 15.833 6.57251 15.9453C6.45044 16.0576 6.45044 16.0576 3.73071 16.0625C2.23657 16.0625 0.888913 16.082 0.737546 16.1015C0.429929 16.1406 0.146726 16.3017 0.0588349 16.4922C0.0197724 16.5752 0.00512394 17.7617 0.000241127 20.5498C0.000241127 24.8711 -0.0192901 24.6172 0.29321 24.9101C0.410397 25.0224 0.508054 25.0566 0.771725 25.0957C0.957272 25.1152 2.36841 25.1347 3.90649 25.1396H6.69946V34.3193C6.69946 40.789 6.71411 43.5722 6.75317 43.7529C6.81665 44.0605 6.95825 44.2851 7.16333 44.4121C7.30493 44.4951 7.51001 44.5 11.387 44.5C15.4641 44.5 15.4641 44.5 15.6204 44.3877C15.7034 44.3291 15.8254 44.1972 15.8889 44.0947C16.0012 43.914 16.0012 43.914 16.0256 34.539L16.05 25.164L19.5657 25.1396C22.7639 25.1152 23.0959 25.1054 23.2327 25.0322C23.4475 24.915 23.6331 24.6806 23.677 24.4658C23.6965 24.3681 23.7161 22.5713 23.7161 20.4765C23.7161 16.7656 23.7112 16.6631 23.6184 16.4775C23.5549 16.3506 23.4524 16.248 23.3254 16.1845C23.135 16.082 23.0569 16.082 19.6096 16.0674L16.0891 16.0527L16.0598 15.4619C16.011 14.583 16.0207 11.9804 16.0745 11.1943C16.1038 10.7646 16.1575 10.3886 16.2209 10.1884C16.3674 9.71481 16.6653 9.29489 17.0217 9.0654C17.5979 8.69431 17.9739 8.65036 20.8108 8.6113C23.55 8.57224 23.467 8.582 23.7209 8.31833C23.8723 8.16208 23.9407 8.04001 23.9797 7.85446C24.053 7.50778 24.053 1.07224 23.9797 0.720673C23.9114 0.398407 23.6526 0.129852 23.3352 0.0517273C23.1741 0.00778198 22.2366 -0.00686646 20.0686 0.00289917C18.3938 0.00778198 16.9387 0.0175476 16.8313 0.0273132Z" fill="#2c3554"/>
</svg>