<svg width="38" height="38" viewBox="0 0 38 38" fill="none" xmlns="http://www.w3.org/2000/svg">
<path d="M10.3554 0.0109292C10.1529 0.0229999 9.4873 0.0994472 9.22265 0.139683C8.8778 0.194001 8.17207 0.356954 7.79915 0.467602C7.22374 0.638602 6.64432 0.869956 6.05487 1.16368C5.35114 1.51372 4.7216 1.91608 4.12012 2.3989C2.63648 3.59189 1.54781 5.05042 0.807989 6.83688C0.415024 7.78442 0.12832 8.99149 0.0360936 10.0859C0.00200994 10.4822 5.01231e-06 11.0455 5.01231e-06 18.988C5.01231e-06 27.713 -0.00199991 27.5199 0.0741871 28.2623C0.102256 28.554 0.212527 29.1776 0.298738 29.5397C0.647595 31.0164 1.28316 32.3904 2.1573 33.5633C2.50616 34.028 2.76279 34.3257 3.19786 34.7603C3.63493 35.1989 3.79733 35.3437 4.25846 35.7058C5.9867 37.0557 8.20615 37.8725 10.4356 37.9791C11.0351 38.0073 27.1046 38.0073 27.6379 37.9771C28.2774 37.9429 29.0132 37.8323 29.6829 37.6673C29.9916 37.5908 29.9977 37.5888 30.4387 37.448C31.5735 37.0839 32.6742 36.5166 33.6326 35.8004C34.4366 35.2009 35.2967 34.3338 35.8641 33.5532C36.1026 33.2233 36.1227 33.1951 36.2731 32.9597C37.2134 31.4851 37.7427 29.9401 37.9572 28.0369C37.9873 27.7774 37.9913 26.9445 37.9973 19.33C38.0033 13.6246 37.9993 10.7639 37.9853 10.4581C37.9632 9.99335 37.9091 9.45218 37.8529 9.15042C37.7286 8.4805 37.5983 7.94134 37.468 7.56112C37.2354 6.88114 37.1532 6.67795 36.8705 6.10258C36.5457 5.44272 36.3513 5.11882 35.9122 4.50322C35.0781 3.3384 33.9494 2.31039 32.6401 1.52579C32.3554 1.35479 31.6718 1.01078 31.347 0.871968C30.4969 0.511861 29.4283 0.218142 28.5802 0.107494C28.1251 0.0491529 28.0108 0.0370823 27.7401 0.0169646C27.4955 -0.00114141 10.6602 -0.00717672 10.3554 0.0109292ZM25.0816 2.85356C27.2349 2.86362 27.5837 2.86966 27.8384 2.89984C28.7506 3.00847 29.5405 3.20562 30.2142 3.4913C31.1986 3.90975 31.9625 4.40666 32.7564 5.14699C32.8827 5.26367 33.2597 5.69218 33.4642 5.94968C33.9774 6.59949 34.4506 7.4907 34.7413 8.36582C34.9418 8.96332 35.038 9.41396 35.1262 10.1764C35.1443 10.3253 35.1623 10.4701 35.1683 10.4983C35.1844 10.5788 35.1924 24.2045 35.1784 25.9688C35.1683 27.0411 35.1563 27.6225 35.1403 27.7332C35.1262 27.8257 35.1082 27.9706 35.0962 28.055C35.01 28.7551 34.8215 29.4774 34.5629 30.1191C34.3564 30.6281 33.9915 31.3101 33.6967 31.7326C33.3739 32.1993 32.8587 32.7706 32.4316 33.1368C32.0306 33.4828 32.0046 33.5029 31.6878 33.7182C31.0863 34.1246 30.6493 34.3539 29.9616 34.6195C29.32 34.8689 28.3917 35.0802 27.6579 35.1425C27.279 35.1747 25.1197 35.1868 18.9866 35.1868C12.5889 35.1868 10.3474 35.1687 10.0848 35.1184C9.99655 35.1003 9.84818 35.0761 9.75395 35.0621C9.33693 35.0037 8.87981 34.8951 8.40263 34.7402C7.9395 34.5893 7.76707 34.5189 7.36208 34.3177C6.56613 33.9254 6.0248 33.5552 5.43535 32.998C4.3988 32.0243 3.71914 30.946 3.26602 29.5498C3.12969 29.1334 2.97531 28.4755 2.94724 28.2019C2.93922 28.1295 2.92118 27.9766 2.90313 27.8599C2.88108 27.6929 2.87105 27.2765 2.85902 25.8864C2.849 24.9167 2.83497 24.112 2.82695 24.0979C2.81893 24.0858 2.82294 23.7559 2.83497 23.3676C2.851 22.8868 2.86103 20.6879 2.86504 16.5034C2.86905 10.3474 2.86905 10.3474 2.92118 9.9853C3.07355 8.93717 3.34221 8.04796 3.76324 7.22113C4.18027 6.40032 4.55118 5.8833 5.16068 5.26769C6.17316 4.24974 7.20169 3.63413 8.62117 3.20562C9.05022 3.07687 9.37502 3.01048 10.0747 2.90989C10.3775 2.86765 10.4497 2.86564 12.9017 2.85356C16.1517 2.83948 21.9459 2.83948 25.0816 2.85356ZM30.6051 5.90341C30.5771 5.90945 30.4929 5.92756 30.4147 5.94365C29.9195 6.05229 29.5044 6.43855 29.3721 6.91735C29.322 7.0964 29.322 7.44443 29.3701 7.62147C29.4724 7.99365 29.735 8.33364 30.0357 8.48452C30.2623 8.59517 30.4127 8.63138 30.6994 8.64345C31.0021 8.65351 31.1324 8.62534 31.4071 8.49055C31.6216 8.38594 31.8743 8.13045 31.9765 7.91921C32.3173 7.20905 32.0507 6.37819 31.377 6.05229C31.2888 6.01004 31.1625 5.96176 31.0964 5.94365C30.968 5.91347 30.6873 5.88933 30.6051 5.90341ZM18.9505 8.78025C18.9425 8.7883 18.726 8.80238 18.4694 8.81244C17.8137 8.83457 17.2925 8.91101 16.5767 9.08805C16.0474 9.22083 15.5582 9.38177 15.077 9.58295C14.8966 9.65939 13.9603 10.1382 13.7638 10.2569C13.1062 10.6512 12.4827 11.1421 11.8712 11.7456C11.3018 12.3069 10.9068 12.7776 10.5419 13.3248C9.95845 14.204 9.56348 15.0127 9.26275 15.9502C8.88382 17.1392 8.71941 18.477 8.80963 19.6519C8.90988 20.9354 9.17252 21.9815 9.6918 23.1564C10.0146 23.8887 10.5579 24.7618 11.1033 25.4257C11.406 25.7918 12.1137 26.514 12.4506 26.7977C13.0541 27.3047 13.6495 27.6969 14.4154 28.0933C15.494 28.6505 16.5085 28.9664 17.7436 29.1313C18.0543 29.1736 18.1646 29.1776 18.9866 29.1776C19.8006 29.1776 19.9249 29.1736 20.2597 29.1313C21.7594 28.9483 23.1729 28.4292 24.4901 27.5803C25.0134 27.2443 25.3763 26.9627 25.8936 26.4979C26.1983 26.2243 26.2585 26.164 26.6374 25.7375C27.1126 25.2064 27.4895 24.6873 27.8283 24.0979C28.0388 23.7338 28.3596 23.0819 28.49 22.7601C28.9591 21.5932 29.2217 20.2453 29.2217 19.0081C29.2217 17.9117 29.0393 16.8213 28.6784 15.739C28.6002 15.5056 28.526 15.2984 28.512 15.2763C28.498 15.2541 28.4719 15.1898 28.4519 15.1354C28.3837 14.9504 27.9627 14.1114 27.8043 13.8479C27.6078 13.524 27.3933 13.2001 27.2148 12.9627C26.888 12.5282 26.3347 11.8985 26.0901 11.6812C26.0119 11.6108 25.8515 11.466 25.7352 11.3553C25.3322 10.9791 24.6405 10.4822 24.009 10.1161C23.1188 9.59904 21.986 9.17053 21.0417 8.99149C20.368 8.86273 20.0793 8.82652 19.5881 8.8064C19.3234 8.79634 19.0748 8.78226 19.0367 8.77623C18.9987 8.77019 18.9586 8.7722 18.9505 8.78025ZM20.1054 11.6933C20.787 11.814 21.2682 11.9508 21.8637 12.1882C22.2907 12.3592 22.8822 12.6871 23.2751 12.9688C24.4982 13.8519 25.3162 14.8981 25.8795 16.3023C26.1642 17.0124 26.3166 17.7105 26.3567 18.485C26.3748 18.8633 26.3687 19.5392 26.3427 19.7826C26.1703 21.4343 25.4485 22.9693 24.2696 24.1864C23.9087 24.5586 23.5819 24.8241 23.0767 25.1601C22.0822 25.82 21.0377 26.1921 19.7645 26.343C19.534 26.3692 19.3615 26.3732 18.8824 26.3652C18.5536 26.3591 18.2227 26.345 18.1446 26.331C18.0684 26.3189 17.8919 26.2887 17.7536 26.2666C16.7632 26.1076 15.7687 25.7093 14.8866 25.1179C14.5136 24.8684 14.3532 24.7457 14.1347 24.5425C14.0806 24.4922 13.9643 24.3896 13.8801 24.3172C13.7959 24.2427 13.6696 24.116 13.6014 24.0355C13.5332 23.953 13.425 23.8323 13.3628 23.7659C13.0901 23.4762 12.6731 22.8546 12.4466 22.3979C12.2681 22.0439 12.0536 21.5449 12.0095 21.39C11.9955 21.3357 11.9634 21.2271 11.9393 21.1506C11.819 20.7664 11.7368 20.3982 11.6687 19.9255C11.6326 19.668 11.6245 18.4609 11.6586 18.1933C11.6807 18.0103 11.7629 17.5576 11.821 17.288C11.8852 16.9943 12.0376 16.5195 12.1899 16.1413C12.3804 15.6706 12.7613 15.0007 13.0821 14.5742C13.3167 14.2623 13.7838 13.7393 13.9743 13.5763C14.3933 13.2182 14.4856 13.1418 14.676 13.005C15.3417 12.5262 15.9812 12.2103 16.8614 11.9287C17.2183 11.814 17.8979 11.6812 18.345 11.637C18.3892 11.6329 18.736 11.6309 19.1169 11.635C19.7605 11.641 19.8287 11.645 20.1054 11.6933Z" fill="#2c3554"/>
</svg>