<svg width="39" height="39" viewBox="0 0 39 39" fill="none" xmlns="http://www.w3.org/2000/svg">
<path d="M3.6128 0.0597916C2.20165 0.338489 1.05695 1.17458 0.474729 2.3513C0.213224 2.87773 0.089872 3.33707 0.0257291 3.97704C-0.117359 5.46342 0.341509 6.86207 1.27405 7.7601C2.80854 9.23616 5.68017 9.41163 7.53538 8.13685C8.74423 7.30592 9.40046 5.90211 9.33632 4.29186C9.28204 3.04805 8.88732 2.11906 8.05839 1.29329C7.71301 0.942333 7.17026 0.560415 6.8002 0.3901C6.19825 0.121724 5.71471 0.0236642 4.83645 0.00301993C4.23942 -0.00730219 3.8891 0.00818099 3.6128 0.0597916ZM28.071 12.1367C26.4329 12.3328 24.997 12.9883 23.7833 14.0979C23.1517 14.6708 22.6731 15.2178 22.2784 15.8217C22.1353 16.0436 22.0169 16.1675 21.9429 16.1778C21.8343 16.1933 21.8343 16.1881 21.8294 15.5585C21.8244 15.2075 21.8195 14.8978 21.8096 14.872C21.8047 14.8411 21.7948 14.3611 21.7948 13.7985L21.785 12.7818H13.5944L13.5845 25.8496C13.5747 33.039 13.5747 38.9329 13.5796 38.9432C13.5944 38.9742 20.586 38.9897 21.2274 38.9639L21.78 38.9381L21.7998 31.2636C21.8244 22.8768 21.8146 23.1555 22.1106 22.2007C22.3623 21.4163 22.678 20.8847 23.2504 20.3118C23.8277 19.7286 24.4296 19.3725 25.2734 19.1196C25.6089 19.0164 25.7717 19.0009 26.5217 19.0009C27.2914 19.0009 27.4246 19.0164 27.7552 19.1196C28.515 19.3725 29.0825 19.7647 29.5413 20.3686C30.0495 21.0343 30.3061 21.6588 30.5577 22.8717C30.686 23.491 30.686 23.491 30.7008 31.2068C30.7156 37.1369 30.7354 38.9277 30.7798 38.9587C30.8143 38.9794 32.6597 39 34.8899 39H38.9407L38.9753 38.4839C39.0197 37.7407 38.9999 23.0007 38.9506 22.2266C38.847 20.5286 38.4177 18.6964 37.8059 17.3132C36.5773 14.5521 34.5543 12.9315 31.5544 12.3225C30.3949 12.0851 29.0677 12.0128 28.071 12.1367ZM0.519136 25.798C0.519136 33.9422 0.538872 38.8503 0.568477 38.8968C0.607949 38.9639 1.11616 38.9742 4.66375 38.9742H8.70969V12.7818H0.519136V25.798Z" fill="#2c3554"/>
</svg>