<svg width="448" height="166" fill="none" xmlns="http://www.w3.org/2000/svg"><path d="M337.318.165c-.802.171-2.328.27-8.848.563-.983.049-1.862.147-1.992.22-.129.098-1.5.367-3.052.636-4.657.808-5.226.93-9.133 2.104-5.355 1.615-9.158 3.059-13.453 5.139-19.61 9.469-34.408 25.201-42.065 44.75-1.837 4.65-3.674 10.938-4.269 14.559-.569 3.401-.802 5.09-.88 6.117-.025.587-.155 1.1-.284 1.15-.129.024-.725-.954-1.345-2.202-1.009-2.031-1.992-3.45-3.959-5.628-.672-.734-.672-.734-2.457-.416-3.364.588-5.64 2.056-11.616 7.56-2.975 2.741-4.683 4.16-5.304 4.332-.491.17-1.242.391-1.681.538-2.199.734-3.855 1.027-5.718 1.027-3.001-.024-4.605-.782-6.545-3.131a291.503 291.503 0 0 0-3.777-4.405c-1.268-1.468-2.898-3.352-3.57-4.184-1.268-1.541-1.268-1.541-2.846-1.419-3.803.319-5.329.857-6.313 2.203-.646.93-.724 1.223-.724 3.107 0 1.884.078 2.226.854 3.645 2.044 3.744 6.39 8.27 9.236 9.616 2.173 1.028 7.994 2.398 10.219 2.398 1.5 0 4.656-.685 5.82-1.248.57-.293 3.079-1.786 5.563-3.352 4.656-2.911 11.59-7.095 12.599-7.585.465-.245.957-.171 2.664.343 1.785.514 2.329.807 3.467 1.884.75.71 1.656 1.688 2.044 2.177 1.112 1.444 2.173 4.282 2.535 6.802.595 4.233.259 16.516-.543 19.33-.13.465-.518 2.202-.906 3.817-.672 3.058-2.923 9.811-3.751 11.353-.259.464-2.018 2.667-3.88 4.893-3.183 3.817-4.398 5.75-4.398 7.047 0 .514 1.138 2.862 1.5 3.083.336.195 3.26-.808 4.786-1.64 3.182-1.761 6.933-6.606 8.589-11.059.259-.685.595-1.566.776-1.957.854-1.909 2.587-8.05 2.872-10.105.103-.71.259-1.346.362-1.395.104-.074.518.856.931 2.031.389 1.174.984 2.642 1.32 3.254.336.636.595 1.248.595 1.395 0 .244 1.733 3.498 3.57 6.655 2.898 5.04 7.27 10.961 10.478 14.191.75.734 1.966 2.006 2.69 2.838 1.475 1.615 7.373 6.606 10.297 8.686 6.649 4.747 16.117 9.542 23.671 11.965 5.925 1.884 13.298 3.474 17.411 3.768.828.049 1.579.147 1.656.244.259.221 1.578.172 1.759-.073.207-.318-.181-.514-1.474-.661-1.682-.22-4.709-.783-7.58-1.468-14.255-3.352-26.414-9.982-36.995-20.185-4.243-4.111-6.986-7.341-10.349-12.185-2.044-2.961-5.07-8.393-6.493-11.647-.362-.807-.802-1.81-1.009-2.202-.776-1.688-2.691-7.805-3.338-10.643-.362-1.689-.802-3.45-.931-3.94-.155-.489-.259-1.345-.259-1.884 0-.538-.129-1.076-.258-1.15-.156-.097-.259-.831-.259-1.663.026-.832-.052-3.279-.181-5.432-.233-4.6.052-11.573.672-15.17 2.277-13.726 8.02-26.23 16.765-36.554 9.753-11.5 21.99-19.672 36.684-24.493 8.796-2.862 16.118-3.84 27.165-3.596 9.598.22 15.16 1.199 24.137 4.208 4.036 1.37 11.15 4.674 14.798 6.9 8.848 5.334 18.058 13.75 23.413 21.36 3.518 5.016 6.183 9.591 6.83 11.671.155.587.828 2.104 1.449 3.377 1.319 2.667 2.017 4.6 2.587 7.193.207.979.439 1.86.517 1.958.31.489 1.914 7.144 1.966 8.172.052.66.155 1.223.285 1.297.362.22.233 5.04-.155 6.263-.751 2.3-3.001 5.554-5.226 7.536-3.157 2.814-6.753 4.722-11.021 5.897-2.199.587-3.027.685-6.339.734-3.44.049-3.932 0-4.889-.465-2.691-1.297-3.855-3.058-3.855-5.848 0-1.761 0-1.761 1.294-3.01 1.5-1.443 4.113-2.74 7.942-3.865 5.122-1.541 7.658-3.083 8.253-4.967.284-.832.233-1.077-.388-2.251-.828-1.59-2.096-3.156-2.743-3.401-.698-.245-5.225.465-7.476 1.174-5.692 1.787-11.099 6.068-13.375 10.595-1.579 3.132-1.941 4.649-1.941 8.074.026 2.863.052 3.132.802 4.625 1.061 2.128 2.355 3.596 4.217 4.722 2.406 1.468 4.088 1.982 7.296 2.177 5.355.318 8.278-.342 14.203-3.205 5.226-2.496 8.33-4.33 10.348-6.117 2.509-2.202 3.855-4.135 4.657-6.68.362-1.125 1.009-2.422 1.397-2.911 1.63-1.909 2.949-9.322 2.147-11.916-.129-.465-.388-1.86-.569-3.058-.776-5.53-4.967-17.96-8.667-25.569-2.639-5.48-7.295-12.503-11.667-17.665-7.839-9.249-19.817-17.935-31.382-22.78-9.649-4.037-18.911-6.14-29.104-6.655-1.837-.098-3.467-.22-3.622-.318-.388-.22-2.199-.22-3.234 0ZM18.721 34.615c-.414.098-1.32.196-1.967.22-1.63.025-6.83 1.322-9.442 2.325-2.122.832-6.054 3.108-6.96 4.086-.44.44-.44.636-.155 2.618.44 2.814 2.432 10.277 3.079 11.451.957 1.762 2.587 2.74 3.777 2.3.362-.122 1.112-.636 1.682-1.126 1.215-1.027 1.267-1.345.672-4.037-.233-.978-.362-1.908-.284-2.08.284-.684 5.277-2.838 9.339-4.012 3.104-.905 6.623-1.59 10.09-1.957 1.422-.147 3.207-.367 3.983-.514.777-.123 4.088-.22 7.4-.22 13.97 0 23.775 2.569 31.665 8.245 2.303 1.688 3.001 2.496 3.83 4.38 1.68 3.89 1.784 6.092.465 8.612-1.01 1.909-2.587 3.328-5.899 5.383-3.156 1.933-10.063 4.576-12.573 4.796-.517.049-1.449.293-2.095.514-.647.244-1.682.465-2.329.489-2.225.147-4.268.416-4.967.66-.362.123-1.94.294-3.492.343-1.527.074-3.493.171-4.347.22-2.871.172-12.288.147-12.599-.024-.336-.196-.13-6.093.362-9.518.181-1.223.31-3.425.337-4.894 0-2.47-.052-2.813-.75-4.135-.647-1.223-.906-1.492-2.07-2.006-1.371-.612-3.363-.783-3.648-.318-.103.147-.362.93-.595 1.762-.336 1.248-.414 3.18-.44 10.814l-.026 9.298-4.242.171c-4.14.147-6.028.416-6.52.881-.13.123-.155.71-.052 1.297.285 1.762 2.924 3.719 3.596 2.667.078-.147.518-.245.932-.245.44 0 1.009-.122 1.293-.269.595-.294 1.578-.049 3.803.93l1.371.612-.103 1.737c-.078 1.1 0 2.08.207 2.618.207.465.414 2.055.517 3.523.104 1.468.285 2.936.44 3.303.181.343.337 1.175.362 1.86.052.66.207 1.982.363 2.936.491 3.156.827 6.582.93 9.787.053 1.835.285 3.817.518 4.649.802 2.838 3.907 7.413 5.304 7.829.31.098 1.604-.171 3.078-.611 2.07-.637 2.743-.955 3.364-1.615.414-.465.776-1.003.776-1.175 0-.195-.492-1.468-1.061-2.862-2.044-4.845-4.553-12.357-5.51-16.492-1.32-5.651-1.708-7.56-1.708-8.416 0-.539-.13-1.273-.259-1.615-.258-.66-.517-5.383-.31-5.946.078-.22.828-.293 2.665-.269 1.422 0 2.716-.098 2.897-.22.285-.22 3.544-.44 9.52-.636 1.216-.05 2.329-.147 2.484-.22.233-.123 4.502-.612 6.934-.783 1.603-.123 6.778-1.028 9.21-1.615 11.15-2.716 19.066-8.882 21.032-16.394.492-1.884.518-2.569.13-5.334-.725-5.211-3.596-10.52-7.296-13.432-3.285-2.618-7.942-4.967-14.876-7.56-6.105-2.252-5.95-2.227-11.046-2.545-5.278-.343-29.596-.514-30.786-.22Zm426.349.392c-.57.196-2.303 1.101-3.855 2.006-2.432 1.42-2.949 1.835-3.674 2.936-1.474 2.35-3.182 8.148-3.208 10.986-.077 5.505.13 9.714.543 10.644.156.367.233.856.13 1.052-.078.22-.026.905.129 1.541.181.636.337 1.762.388 2.496.155 2.716.518 5.774.751 6.117.129.171.258 1.1.284 2.055.129 3.426.362 5.921.647 6.9.181.66.207 1.174.026 1.468-.13.27-.259 2.055-.285 4.013-.026 1.933-.129 3.645-.233 3.792-.103.122-.181 1.468-.207 2.96 0 1.493-.077 2.814-.155 2.937-.077.122-.233 1.59-.336 3.278a158.348 158.348 0 0 1-.414 6.093c-.388 4.967-.311 14.338.181 16.956.466 2.642 1.112 4.159 1.966 4.698.518.318.776.318 1.889.049 1.009-.245 1.397-.465 1.811-1.15.465-.734.517-1.248.491-4.135 0-1.811-.155-4.674-.336-6.362-.155-1.688-.388-8.784-.518-15.782-.129-6.997-.284-13.163-.388-13.701-.465-2.52-.62-21.14-.207-24.957.854-8.026 2.665-14.191 6.908-23.391.828-1.786.802-2.422-.078-3.23-.828-.758-.853-.758-2.25-.27Zm-53.346 16.907c-.284.245-1.061 1.272-1.733 2.3-1.371 2.153-3.726 4.477-5.976 5.921-.854.538-5.433 2.79-10.219 4.967-11.616 5.31-15.548 7.438-18.601 10.032-1.682 1.419-2.225 2.3-2.717 4.306-.543 2.227-.207 3.72 1.604 7.022 2.743 5.016 4.528 9.567 5.226 13.408.647 3.45.647 4.527-.026 6.974-1.63 6.068-5.95 11.304-14.513 17.567-.828.612-1.501 1.15-1.501 1.224 0 .073.285.562.595 1.101.44.709.751.954 1.139.93 1.035-.098 6.648-2.545 9.236-3.989 3.311-1.884 6.855-4.6 8.718-6.679 4.527-5.09 5.045-11.525 1.604-19.819-2.665-6.435-3.518-9.616-3.389-12.6.078-2.056.103-2.178 1.164-3.524 1.268-1.615 3.777-3.597 7.58-5.995 4.088-2.569 6.313-3.645 9.184-4.355 8.538-2.153 9.831-2.593 12.056-4.135 2.328-1.64 4.502-5.848 4.812-9.346.129-1.297.052-1.689-.647-3.059-1.319-2.57-2.406-3.254-3.596-2.251Zm-99.395 18.791c-1.19.343-2.923.93-3.881 1.321-4.993 2.031-11.616 6.778-16.014 11.525-2.095 2.275-3.828 5.309-5.122 9.052-.647 1.885-.724 2.423-.724 5.506-.026 3.156.026 3.548.672 4.942 2.329 5.187 6.494 8.564 14.126 11.475 4.01 1.542 13.634 3.475 17.204 3.475.828 0 1.94.073 2.457.171.984.147.984.147 1.242-1.101.311-1.443.388-1.37-2.095-2.324-.983-.392-2.38-.93-3.105-1.224-.698-.318-3.751-1.566-6.778-2.813-3.027-1.248-6.338-2.741-7.373-3.304-5.174-2.862-10.814-9.469-10.814-12.674 0-1.174 1.035-4.404 1.863-5.75 1.216-2.03 4.889-5.505 7.528-7.169 2.639-1.639 5.666-2.838 7.787-3.058l1.449-.171v1.541c0 .88-.181 1.86-.414 2.325-.44.88-3.13 3.963-5.511 6.312-.827.832-1.966 2.007-2.535 2.643-.543.611-1.319 1.419-1.681 1.81-1.113 1.101-1.346 1.909-.906 2.716.233.392.621.954.931 1.248.518.514.518.514 2.148.049 6.286-1.835 12.754-6.924 17.825-14.044 1.862-2.594 3.854-6.362 4.035-7.61.233-1.737-1.086-3.376-3.777-4.673-2.095-.979-5.458-1.052-8.537-.196ZM174.152 73.91c-.518.22-.388 1.42.207 2.007.543.562 3.233 1.933 5.381 2.74 2.768 1.028 4.838 2.667 7.321 5.75 1.423 1.762 1.811 2.496 2.38 4.33.544 1.762.518 2.423-.077 4.234-1.009 3.033-2.355 5.04-4.993 7.511-4.812 4.478-10.84 6.802-17.696 6.802-2.716 0-3.441-.098-4.915-.587-.932-.318-2.07-.905-2.484-1.297-1.242-1.101-2.018-2.887-2.018-4.673 0-1.64.336-2.52 1.345-3.401.983-.881 4.786-2.422 7.684-3.132 6.08-1.517 9.339-3.352 9.339-5.26 0-1.077-.931-3.181-1.888-4.258-.854-.93-.854-.93-3.545-.905-9.598.122-18.445 6.46-20.929 14.95-.388 1.321-.543 2.544-.543 4.477 0 2.667 0 2.667 1.19 4.845 1.914 3.498 4.45 5.236 9.365 6.312 5.588 1.273 13.039-.171 19.196-3.67 5.407-3.083 8.744-5.97 11.771-10.276 2.665-3.744 3.338-5.53 3.674-9.787.362-4.65-2.354-10.179-6.364-12.895-2.691-1.835-7.348-3.523-9.857-3.597-.776-.024-1.837-.097-2.328-.195-.492-.074-1.061-.098-1.216-.025Zm-42.17 9.2c-.465.123-1.267.171-1.81.123-.544-.05-1.268.048-1.63.195-.363.172-1.449.367-2.406.44-.983.099-2.148.319-2.562.539-.439.196-1.008.367-1.267.367-.802 0-5.64 1.395-8.512 2.447-6.364 2.349-9.313 3.719-23.025 10.716-8.796 4.478-8.873 4.502-9.727 4.233-.44-.146-1.035-.269-1.32-.269-.698 0-1.034-.416-1.5-1.908-.517-1.664-.569-4.16-.103-6.41.207-1.004.362-2.741.336-3.818 0-1.737-.103-2.202-.854-3.62-1.267-2.448-1.552-2.594-5.019-2.448-1.707.074-3.156.27-3.57.49-.905.416-2.095 1.81-3 3.425-.648 1.15-.673 1.346-.389 2.202.181.539.31 1.395.285 1.933-.026 1.003.284 3.156.828 5.505 1.5 6.656 4.035 9.738 9.313 11.231 1.656.465 4.683.905 5.407.783.466-.073 3.674-1.835 16.531-9.053 9.857-5.554 13.401-7.365 16.506-8.49 6.002-2.153 12.754-3.548 17.463-3.573 2.043 0 2.457.074 4.527.906 1.242.514 2.406 1.003 2.535 1.1.156.099 1.113.612 2.148 1.102 3.13 1.492 5.07 1.199 7.657-1.15 1.216-1.101 1.268-1.175 1.087-2.202-.336-1.982-.569-2.202-3.26-3.059-4.605-1.492-12.133-2.397-14.669-1.737Zm199.489 12.674c-.31.123-3.182.196-6.364.196-3.803 0-6.002.098-6.364.27-.285.146-1.164.268-1.914.268-1.397 0-4.657.759-7.167 1.664-1.94.71-3.13 1.542-3.13 2.178 0 .66 1.035 1.835 2.225 2.52.854.514 1.035.538 6.649.342 3.156-.097 5.795-.195 5.872-.22.078-.024.388-.098.725-.22.31-.098 1.345-.22 2.328-.269 4.967-.269 11.383-1.566 14.772-2.96 2.147-.906 3.131-1.713 3.131-2.545 0-1.322-.621-1.468-5.692-1.444-2.484 0-4.786.098-5.071.22Z" fill="#fff"/></svg>