<svg width="96" height="24" fill="none" xmlns="http://www.w3.org/2000/svg"><path d="M73.675.03c-.03.029-.5.097-.969.146-.706.073-2.077.586-2.825 1.06-1.299.825-2.154 1.987-2.422 3.305-.284 1.372-.335 1.523-.65 1.797-.252.22-.484.293-.907.293-.392 0-.84.17-1.14.434-.2.176-.272.293-.406.64-.145.376-.16.474-.145.816.052 1.005.63 1.655 1.691 1.909.428.102.675.22.928.449.407.371.381.161.412 3.94l.026 3.37.201.405c.227.454.418.64.85.835.274.122.33.127 1.114.127.789 0 .84-.005 1.119-.132.386-.171.783-.527.943-.845.077-.161.144-.42.18-.688.031-.24.067-1.807.083-3.487.03-3.052.03-3.052.154-3.252.067-.112.201-.268.304-.351.377-.318.392-.318 1.882-.357 1.48-.039 1.737-.078 2.16-.322.268-.156.572-.552.711-.918.067-.176.093-.39.093-.757 0-.464-.016-.542-.15-.815-.175-.366-.49-.654-.897-.835-.293-.127-.299-.127-1.969-.156-1.83-.03-1.804-.025-2.015-.328-.119-.166-.129-.776-.026-1.196.145-.566.52-1.074.954-1.28.572-.277.68-.287 2.556-.321 2.031-.035 2.062-.04 2.557-.479.356-.308.47-.498.593-.957.077-.298.077-.347 0-.674a2.274 2.274 0 0 0-.211-.556c-.18-.293-.593-.62-.928-.743C77.247.005 77.155 0 75.469 0c-.974 0-1.778.015-1.794.03ZM26.392 2.792c-.397.02-.804.034-.902.034-.098 0-.294.025-.438.054-1.531.312-1.892.415-2.753.762a10.419 10.419 0 0 0-4.345 3.29c-1.372 1.768-2.078 3.843-2.057 6.03.02 1.695.325 3.004 1.036 4.395.624 1.221 1.144 1.915 2.134 2.823.722.669.948.844 1.629 1.279 1.953 1.245 4.474 1.846 6.85 1.64 2.516-.224 4.753-1.186 6.531-2.822.918-.844 1.567-1.68 2.109-2.695.804-1.528 1.17-2.983 1.17-4.643 0-.894-.02-1.109-.227-2.076-.412-1.948-1.382-3.637-2.928-5.107a10.457 10.457 0 0 0-4.433-2.525c-.789-.22-1.753-.4-2.134-.4-.119 0-.284-.015-.366-.039-.088-.02-.48-.02-.876 0Zm1.077 6.68c1.737.42 2.912 1.84 2.918 3.515 0 .957-.366 1.758-1.134 2.495-.609.581-1.238.89-2.057 1.016-.392.059-1.346-.015-1.758-.137-.69-.205-1.469-.776-1.943-1.43-.449-.61-.634-1.206-.634-2.007.005-1.133.613-2.26 1.562-2.876.938-.606 2.051-.816 3.046-.576ZM6.005 6.103a.713.713 0 0 1-.278.05c-.69 0-1.974.331-2.768.707-1.041.498-1.825 1.338-2.057 2.202-.129.464-.14 1.319-.026 1.832.17.756.794 1.572 1.583 2.046.551.336.783.439 3.211 1.367 2.01.771 2.495.981 2.665 1.157.242.254.289.981.083 1.367-.165.313-.542.61-1.01.8-.398.167-.398.167-1.3.162-.995 0-1.01-.005-4.098-.635-.54-.112-.66-.122-.948-.078-.485.078-.778.235-.933.498-.108.186-.129.283-.129.62 0 .362.015.415.155.606.293.395.623.537 1.958.835 1.413.312 2.3.449 3.712.58a9.222 9.222 0 0 0 1.907.006c1.423-.147 1.794-.225 2.701-.572.768-.293 1.299-.61 1.784-1.074.67-.64.85-1.01 1.005-2.09.056-.395.056-.556.005-.928-.124-.84-.428-1.4-1.072-1.992-.789-.717-.882-.761-3.908-1.738-1.907-.61-2.907-1.182-3.17-1.811-.087-.21-.03-.61.13-.87.138-.224.458-.512.695-.63.48-.234.768-.283 1.778-.307 1.119-.025 1.392.01 2.573.293.69.166.876.195 1.175.176.577-.04.814-.264.855-.81.031-.44 0-.558-.226-.792-.413-.43-1.02-.644-2.547-.889-.525-.087-.902-.107-2.036-.122-.866-.01-1.422.005-1.469.035Zm35.773.445c-.438.117-.7.303-.886.61-.3.508-.294.45-.284 6.001.016 5.86-.036 5.327.547 5.889.304.293.381.337.721.434.856.25 1.67-.097 2.13-.898l.17-.298.03-3.125c.031-2.861.041-3.164.134-3.613.33-1.548.918-2.486 1.856-2.944.515-.25.85-.323 1.459-.323.448 0 .51.01.737.137.304.17.443.342.634.786l.15.342.025 4.375.026 4.375.206.386c.242.449.484.64 1.046.8.464.137.82.098 1.315-.141.278-.132.417-.24.562-.42.386-.483.37-.352.407-3.589.02-1.597.057-3.062.087-3.247.207-1.372.717-2.47 1.444-3.1.428-.377.716-.518 1.376-.68.443-.112.541-.121.696-.073.098.035.278.083.392.113.505.127.876.688.964 1.44.025.244.061 2.28.082 4.522.031 4.028.031 4.082.14 4.301.164.337.443.596.83.777.298.141.396.16.757.16.35.006.469-.019.727-.13.392-.167.66-.411.866-.787l.165-.293.01-4.893.015-4.887-.175-.396c-.227-.513-.469-.82-.85-1.074-.66-.435-1.3-.61-2.273-.61-.356 0-.794.029-.98.058a28.54 28.54 0 0 1-.619.103c-.154.024-.597.151-.979.278-.381.127-.964.293-1.288.376-.593.142-.593.142-.98.059-.211-.044-.727-.21-1.14-.367-.906-.341-1.84-.537-2.587-.537-.546 0-1.376.152-1.969.367-.891.317-1.376.463-1.742.537-.371.073-.412.073-.794-.025a7.65 7.65 0 0 1-1.046-.39c-1.134-.513-1.438-.572-2.114-.386Zm37.887.039c-.418.205-.485.293-.505.684-.02.327-.02.327.917 2.08 2.485 4.643 4.165 7.836 4.243 8.076.19.566.04 1.474-.356 2.178-.345.6-1.175 1.269-1.918 1.538-.608.22-1.04.283-2.051.307-1.134.03-1.217.049-1.588.425-.288.293-.376.557-.299.913.072.337.248.571.531.723.237.122.253.122 1.454.122 1.345 0 1.773-.049 2.603-.298.845-.254 1.603-.669 2.551-1.401.186-.137.366-.303.413-.367.041-.058.216-.268.386-.459.567-.64.825-1.113 2.356-4.38.418-.883.778-1.66.804-1.733.031-.068.227-.488.438-.932a450.218 450.218 0 0 0 2.949-6.275c.19-.425.206-.688.051-.903-.355-.493-1.263-.576-2.067-.19-.335.165-.608.439-.773.776-.082.175-.314.644-.515 1.05-.588 1.2-.701 1.43-1.067 2.197-.727 1.509-1.016 1.943-1.444 2.148-.644.308-1.165.025-1.835-1.02-.16-.244-.773-1.26-1.36-2.251-1.403-2.359-1.49-2.49-1.892-2.74-.67-.43-1.48-.532-2.026-.268Zm13.763 8.999c-.603.078-1.016.317-1.346.776-.474.664-.463 1.66.021 2.344.356.508.892.742 1.686.742.747 0 1.35-.288 1.706-.81.283-.415.371-.733.345-1.25-.03-.562-.2-.928-.613-1.3-.335-.302-.619-.439-1-.487a8.348 8.348 0 0 1-.361-.044 2.408 2.408 0 0 0-.438.029Zm.84.576c.34.122.608.361.789.694.118.224.129.292.113.693-.015.376-.041.488-.17.732-.093.171-.232.342-.35.425-.552.38-1.583.278-1.939-.195-.5-.664-.49-1.426.026-2.002.196-.225.701-.445 1.01-.445.134 0 .372.044.521.098Zm-1.108.376c-.083.02-.093.107-.093.967 0 1.04.01 1.07.32 1.04.17-.015.17-.015.175-.308.005-.39.01-.415.088-.415.036 0 .133.132.21.298.083.161.197.327.259.366.144.093.474.093.515-.01.031-.082-.118-.395-.31-.64-.154-.19-.154-.2.011-.36.098-.098.144-.206.165-.376.041-.425-.247-.596-.97-.586-.154 0-.324.01-.37.024Zm.711.425c.093.068.093.083.02.21-.046.073-.118.142-.164.151-.124.025-.206-.151-.145-.303.057-.141.14-.16.29-.058Z" fill="#fff"/></svg>