<svg width="731" height="100" fill="none" xmlns="http://www.w3.org/2000/svg"><path d="M46.63.544C45.19.912 42.47 1.722 40.605 2.31c-1.826.626-5.906 1.878-9.015 2.798-4.313 1.288-6.334 2.098-8.549 3.46-6.955 4.306-11.89 10.196-17.64 21.091C.931 38.09 0 41.99 0 52.628c.039 10.564 1.321 16.637 4.818 22.526 3.73 6.22 9.365 12.883 13.717 16.16 3.808 2.87 10.57 6.146 14.727 7.14 3.925.92 12.396 1.546 21.294 1.546 8.86 0 14.61-.478 17.68-1.51 5.246-1.73 11.89-7.14 18.613-15.09 11.191-13.288 12.318-15.35 13.639-25.435 1.127-8.687.544-16.638-1.787-23.558-.622-1.914-2.371-5.889-3.886-8.797-2.526-4.895-2.992-5.521-6.1-8.503-2.371-2.245-5.091-4.27-9.21-6.846C71.965 3.047 66.408.95 57.082.36 55.178.25 52.613.102 51.447.028c-1.32-.11-3.186.11-4.818.516Zm8.237 8.907c1.438.7 1.943 1.215 2.72 2.871.544 1.105 1.01 2.098 1.088 2.172.078.074 1.593.11 3.42.074 3.225-.074 4.546.368 3.302 1.104-.544.331-15.97.405-17.913.073-1.321-.22-1.71-1.656-.933-3.46.66-1.509 1.555-2.318 3.342-3.055 1.865-.773 2.953-.736 4.974.221Zm-18.185 6.736c1.554.773 2.875 2.908 2.525 4.16-.388 1.435-1.904 3.202-3.225 3.717-1.554.626-3.691-.22-4.74-1.877-2.41-3.755 1.398-7.987 5.44-6Zm20.983 1.288c.544.295.66.59.427 1.546-.505 2.062-1.943 4.344-3.225 5.08-1.088.626-1.321.626-2.798.147-1.982-.662-4.74-3.165-5.323-4.822-.778-2.208-.544-2.319 5.09-2.319 2.798 0 5.44.148 5.829.369Zm-13.99 3.166c1.516 1.546 1.594 1.73 1.05 2.466-.31.442-1.36 1.178-2.331 1.62-4.974 2.282-8.938 8.355-10.842 16.637-.971 4.307-1.398 4.822-3.808 4.822-1.243 0-2.02-.184-2.409-.663-2.992-3.202-1.243-14.539 3.07-19.876 1.088-1.399 1.243-1.399 5.518-.258 1.865.479 2.215.479 3.42-.037 1.825-.846 3.069-2.392 3.38-4.233.466-2.723.7-2.76 2.953-.478Zm6.063 3.828c1.437.957 1.71 1.325 1.71 2.393 0 .699.233 2.171.543 3.276.583 2.098.544 2.87-.699 9.165-.272 1.583-.66 2.981-.777 3.092-.389.405-1.827-1.104-2.837-2.982-.855-1.62-.932-1.987-.544-3.165.777-2.503.544-5.043-.738-7.546-.66-1.288-1.477-2.43-1.826-2.54-.583-.22-.428-.478.855-1.509.854-.7 1.787-1.251 2.059-1.288.272 0 1.282.515 2.254 1.104Zm-4.819 4.307c1.477 3.092 1.671 4.6.972 6.846-.816 2.43-.466 3.423 2.409 6.846.933 1.141 2.098 1.951 3.847 2.687 1.865.81 2.564 1.326 2.953 2.172.31.7 1.127 1.399 2.176 1.914 1.982.957 2.293 1.51 1.205 2.098-.661.331-1.283.148-3.459-.92-2.098-1.067-7.383-2.724-8.665-2.76-.117 0-.155.404-.078.883.195.92.195.92-3.613.736-7.072-.294-9.443-.552-9.87-1.067-.583-.7.816-10.123 1.787-12.037.855-1.73 1.321-1.472 1.321.773 0 3.607 3.264 8.172 7.306 10.122 2.02.994 2.914.59 1.049-.478-3.38-1.914-5.596-4.564-6.606-7.877-1.399-4.638-.66-7.546 2.72-10.785 2.448-2.282 3.07-2.172 4.546.847ZM59.802 46.37c1.438.479 2.914 1.104 3.264 1.399.816.662 4.08 1.877 15.387 5.668 5.13 1.73 10.026 3.387 10.842 3.681 1.554.515 1.554.515 2.72-.773.66-.7 1.593-1.435 2.06-1.656 1.087-.516 3.885-.516 4.235 0 .31.515-.544 1.067-1.671 1.067-2.526 0-4.003 1.657-4.275 4.822-.194 1.988-.116 2.245 1.01 3.607 1.283 1.546 1.128 2.172-.466 1.473-1.049-.442-2.992-3.092-2.992-4.05 0-.367.389-.956.894-1.324 1.166-.884.933-1.84-.427-1.877-.583 0-3.498-.847-6.49-1.84-19.35-6.48-19.467-6.553-20.011-7.4-.35-.515-.428-.515-.777.037-.35.516-.622.553-2.448.148-3.536-.773-5.518-2.246-4.508-3.387.583-.662.583-.662 3.653.405ZM43.21 50.272c2.68.037 3.186.147 3.186.662 0 .884-4.546 12.074-5.945 14.576-.855 1.51-2.915 3.829-6.567 7.362l-5.324 5.153-1.943-1.84-1.981-1.804 1.127-1.14c2.176-2.21 5.245-6.295 6.294-8.467 1.633-3.276 2.215-8.355 1.322-11.484-.972-3.423-.855-3.57 3.225-3.276 1.865.11 4.818.258 6.606.258Zm5.867 2.945c.389.883 1.36 2.613 2.215 3.828.855 1.214 3.147 4.453 5.09 7.177 4.12 5.816 7.189 11.08 6.8 11.632-.544.773-3.924 2.797-4.274 2.576-.194-.11-1.515-1.84-2.953-3.865-2.837-4.049-4.974-6.625-8.898-10.784l-2.682-2.835 1.671-4.822c.894-2.65 1.827-4.748 2.02-4.674.195.036.661.846 1.011 1.767Zm-23.47 23.925 1.438 1.51-1.438 1.324c-1.321 1.215-1.36 1.362-.738 1.804.388.257.932.478 1.243.478 1.05 0 2.798 1.51 2.798 2.393 0 1.251-1.05 1.656-3.73 1.472-2.526-.184-3.886-.92-4.819-2.613-.31-.59-.7-1.104-.855-1.178-.155-.074-.699-.442-1.165-.81-.894-.7-.894-.7 2.02-3.276 1.593-1.435 3.109-2.576 3.342-2.613.272 0 1.088.7 1.904 1.509Zm46.474.736c.621.626 1.127 1.288 1.127 1.51 0 .736-2.254 2.465-3.847 2.907-.933.258-2.293 1.104-3.187 1.914-1.282 1.215-1.632 1.362-2.098.994-.738-.552-4.08-5.08-4.08-5.484 0-.516 3.575-2.65 4.119-2.467.31.11.738.626.933 1.142.427 1.067 1.243 1.177 1.981.294.7-.773 2.72-1.95 3.38-1.95.312 0 1.05.514 1.672 1.14ZM332.116 7.316c-1.477.626-3.459 3.13-4.003 4.97-.583 2.134-2.836 29.998-3.497 42.918-.233 4.638-.544 9.202-.738 10.122-.195.92-.544 5.3-.777 9.755-.234 4.453-.622 10.122-.855 12.588-.544 5.264-.311 6.626 1.127 7.95 1.632 1.51 3.225 1.878 5.517 1.363 2.526-.59 5.674-3.166 6.179-5.08.194-.736.583-5.337.816-10.196.466-9.717 1.204-15.975 2.059-17.962.428-.92.894-1.362 1.71-1.51 2.098-.367 15.582-.073 16.087.405.894.847.971 3.35.311 10.233-.389 3.828-.7 8.503-.7 10.343-.039 3.939.35 4.491 3.808 5.448 4.042 1.141 6.218.478 7.461-2.172.933-1.95 2.37-13.582 4.041-32.575.117-1.325.389-8.54.583-16.012.233-7.509.583-14.429.777-15.46.7-3.238.622-9.422-.116-10.747-.816-1.473-2.371-2.614-3.925-2.871-1.71-.332-5.207.993-6.722 2.466-1.865 1.877-2.06 3.018-2.06 11.116 0 11.926-1.127 23.63-2.409 25.618-1.593 2.393-11.346 3.46-15.854 1.73-2.137-.81-2.137-.81-2.331-3.018-.272-3.055.194-11.815.932-18.22.35-2.945.816-6.994 1.049-9.018.622-5.19.35-9.055-.66-10.38-1.554-1.988-5.362-2.871-7.81-1.804ZM185.117 10.85c-2.37 1.067-4.196 2.797-4.701 4.527-.234.773-.544 7.104-.739 13.988-1.01 35.115-1.127 37.692-2.603 50.206-.583 5.19-.894 9.202-.738 10.196.544 3.387 3.691 5.08 7.616 4.086 5.284-1.325 6.605-4.049 7.383-15.275.466-6.7 1.049-10.933 1.632-12.037.466-.92 3.303-2.43 5.634-3.018 2.759-.7 3.536-.11 7.694 6.22.621.92 3.497 6.221 6.45 11.78 5.44 10.269 6.761 12.146 9.132 13.103 3.419 1.362 8.199.074 10.802-2.945 2.875-3.35 6.023-9.717 8.976-18.146.544-1.693 1.205-3.129 1.399-3.276 1.632-.957 10.958-2.43 15.854-2.503 1.282-.037 1.36.073 2.098 1.987.428 1.105 1.01 3.35 1.282 4.97 2.177 12.809 2.643 14.576 4.547 16.637.894.957 1.438 1.215 2.487 1.215 2.487 0 4.507-.81 6.295-2.54 1.67-1.657 1.67-1.657 1.398-3.902-.116-1.215-.582-3.791-1.01-5.705-1.71-7.62-2.681-12.11-3.264-15.46-.35-1.914-1.243-6.33-1.982-9.754-4.468-20.465-5.828-27.937-6.722-37.25-.272-2.871-.583-4.049-1.205-4.896-1.67-2.245-5.906-2.355-9.209-.257-2.37 1.546-3.924 4.27-6.411 11.226-1.049 2.945-4.236 11.227-7.15 18.331-2.875 7.14-7.033 17.631-9.209 23.373-2.176 5.706-4.158 10.454-4.352 10.49-.233.074-1.438-1.73-2.681-4.011-1.244-2.246-3.614-6.184-5.207-8.724-3.498-5.484-4.858-8.282-4.547-9.239.156-.405 1.865-1.877 3.847-3.276 5.984-4.233 8.005-7.214 9.054-13.288.544-3.202.583-4.122.155-7.25-1.476-10.234-7.072-14.614-24.48-19.105-3.07-.772-4.779-.993-9.753-1.104-5.479-.11-6.178-.073-7.772.626Zm16.903 13.62c7.344.993 11.036 4.232 11.697 10.158.544 4.933-.506 5.926-14.961 14.355-2.525 1.473-5.401 2.577-5.789 2.209-.778-.773-1.088-16.821-.428-22.122.583-4.6.894-4.969 4.158-4.969 1.438 0 3.847.184 5.323.368Zm53.196 15.422c.7 1.288 2.176 8.613 2.526 12.736.233 2.576.194 3.46-.233 3.901-.738.847-3.186 1.436-6.917 1.693-2.72.184-3.303.11-3.303-.294 0-2.245 3.925-15.202 5.479-18.073.855-1.546 1.594-1.546 2.448.037Zm382.98-29.005c-1.981.846-3.341 1.95-4.08 3.276-1.01 1.877-1.36 7.361-1.748 27.238-.389 20.797-1.166 33.238-2.565 41.373-.777 4.454-.583 7.582.505 8.98 1.322 1.657 3.575 2.688 5.363 2.43 3.419-.515 6.411-2.466 7.15-4.711.777-2.245 1.593-7.877 1.981-13.656.467-6.957.816-8.76 1.788-9.791.971-1.03 3.108-2.025 5.012-2.393 2.992-.552 3.614-.184 5.829 3.276a339.204 339.204 0 0 0 2.72 4.123c.699.994 3.458 6.073 6.139 11.226 5.985 11.411 6.645 12.184 10.686 12.7 2.915.367 5.557-.332 7.267-1.915 3.225-2.981 3.031-4.086-2.332-12.625a370.409 370.409 0 0 1-5.906-9.938c-1.943-3.35-4.43-7.436-5.518-9.129-1.088-1.656-2.37-3.865-2.798-4.932-.777-1.877-.777-1.877.117-2.798.505-.478 2.137-1.766 3.691-2.87 6.295-4.418 9.054-9.755 9.054-17.448 0-7.95-3.769-13.913-10.88-17.3-4.08-1.95-11.035-4.122-16.32-5.116-5.518-1.068-12.707-1.068-15.155 0Zm19.624 14.06c3.069.847 4.585 1.583 5.906 2.909 2.02 2.024 2.992 4.233 3.147 7.14.272 4.638-.311 5.264-10.724 11.558-6.412 3.865-9.21 5.116-9.87 4.49-1.127-1.067-1.477-16.82-.505-22.526.349-1.914.699-3.718.777-4.012.194-.405 1.049-.479 4.779-.294 2.487.11 5.44.478 6.49.736ZM451.525 11.77c-3.459 1.141-5.052 3.166-7.344 9.202-.777 2.025-2.448 6.405-3.692 9.755a693.264 693.264 0 0 1-6.45 16.085c-6.528 15.938-13.989 36.293-14.572 39.753-.349 2.135-.349 2.135 1.166 3.497 2.37 2.135 5.634 2.503 8.238.883 1.632-1.03 5.751-9.312 8.432-16.895 1.127-3.313 1.36-3.68 2.565-4.16 1.981-.772 15.853-2.723 16.32-2.281.388.368 1.671 5.374 2.098 8.208 2.098 13.84 3.614 17.042 7.81 16.674 2.487-.22 4.508-1.325 5.907-3.129 1.165-1.546 1.165-1.546.544-4.969-.35-1.877-1.244-6.257-1.982-9.68-.738-3.46-1.982-9.313-2.72-13.067-.738-3.755-2.332-11.337-3.497-16.859-2.06-9.57-3.614-18.588-4.547-26.502-.233-1.95-.699-4.122-1.049-4.822-1.01-2.06-4.002-2.797-7.227-1.693Zm-.078 29.41c.777 2.724 1.749 8.024 2.176 11.632.272 2.723.272 3.202-.311 3.644-1.36 1.03-3.497 1.62-6.567 1.803-2.681.148-3.264.074-3.458-.405-.35-.92 2.526-11.557 4.546-16.6 1.321-3.423 2.643-3.46 3.614-.074Zm-66.174-28.858c-2.72.626-4.43 2.467-5.285 5.632-.661 2.393-1.438 13.693-2.331 32.833-.311 6.883-.778 16.453-1.011 21.239-.66 12.551.117 19.398 2.293 20.502 2.137 1.067 7.694-.663 9.442-2.908.816-1.067 1.632-5.853 2.293-13.251.66-8.171.622-8.024 2.292-8.43 4.314-1.067 6.606-1.582 11.891-2.65 7.072-1.398 11.035-2.723 14.766-4.932 5.945-3.496 9.442-7.14 11.268-11.631 1.594-3.975 1.827-9.57.583-13.251-1.049-3.092-3.924-7.472-6.722-10.196-2.37-2.319-6.839-5.3-9.87-6.552-3.886-1.656-10.802-3.755-14.921-4.564-2.215-.405-5.013-.994-6.179-1.289-2.875-.662-6.877-.957-8.509-.552Zm13.172 14.356c7.5 1.803 12.94 4.49 16.631 8.281 6.218 6.405 4.236 13.656-4.779 17.705-3.42 1.546-7.81 2.614-13.017 3.203-5.363.589-5.751.515-6.062-1.03-.428-2.32.583-20.393 1.399-24.626.855-4.454.971-4.748 1.865-4.49.388.073 2.137.515 3.963.957ZM533.98 13.427c-1.554.81-3.108 2.503-3.769 4.196-1.282 3.092-1.981 11.558-3.341 39.606-.311 6.367-.739 14.245-.972 17.447-.388 6.147 0 9.79 1.438 12.625.816 1.693 2.798 2.466 5.673 2.209 2.953-.258 4.041-.994 5.518-3.755 1.166-2.208 1.166-2.208 1.36-13.509.116-6.183.311-11.373.466-11.52.622-.626 13.406 13.287 19.351 21.127 6.256 8.209 7.422 9.24 10.569 9.24 2.176 0 3.109-.369 4.897-1.988 2.564-2.246 3.069-4.565 1.593-7.288-1.011-1.878-12.24-15.533-16.243-19.803a307.67 307.67 0 0 0-6.683-6.81c-3.575-3.534-5.013-5.19-5.013-5.779 0-1.178 12.862-12.92 21.76-19.803 3.303-2.613 6.334-5.19 6.723-5.815 2.292-3.755-1.438-7.62-6.606-6.884-2.254.295-9.248 5.264-16.32 11.595-6.451 5.742-9.87 8.54-12.124 9.938-1.982 1.252-2.914 1.436-2.603.442.116-.331.466-2.466.816-4.675.311-2.245.738-4.969.971-6.073.544-2.577.972-11.337.622-12.625-.622-2.466-5.09-3.608-8.083-2.098Zm-241.033.368c-4.702 1.435-11.035 5.668-13.989 9.386-5.479 6.883-6.372 16.821-2.215 24.956 2.449 4.711 7.034 8.687 12.318 10.638 1.516.552 4.547 1.656 6.839 2.503 5.44 1.95 7.577 3.276 8.51 5.263.972 1.988.972 3.718-.039 5.78-1.36 2.87-3.808 4.71-6.955 5.3-.739.147-3.886.478-6.956.773-9.131.883-11.424 2.355-11.074 7.14.155 2.282.272 2.503 1.71 3.755 2.603 2.245 5.051 2.54 13.017 1.62 6.528-.774 10.763-2.21 14.96-5.154 4.119-2.87 6.606-6.11 8.315-10.969 2.099-5.816 1.749-11.594-.932-16.011-3.264-5.338-5.984-7.252-14.183-9.865-8.121-2.577-11.308-4.675-13.484-8.908-2.331-4.454-1.36-8.098 2.954-11.153 2.214-1.582 5.906-2.724 7.693-2.319 1.671.332 4.741 3.313 7.267 7.03 2.292 3.424 4.274 5.264 5.673 5.264 1.127 0 3.963-2.024 5.129-3.644 1.01-1.435 1.477-3.864 1.127-6.036-.389-2.356-4.546-9.313-6.761-11.3-4.585-4.086-12.901-5.853-18.924-4.05Zm410.919.11c-5.401 1.73-11.696 6.294-14.727 10.711-3.614 5.227-4.819 12.184-3.187 18.22 1.322 4.86 2.915 7.583 6.256 10.712 3.187 3.018 6.257 4.748 11.463 6.441 4.624 1.51 9.948 4.012 11.23 5.3.894.884 1.166 1.547 1.321 3.13.078 1.067-.038 2.613-.31 3.349-.933 2.613-4.158 5.263-7.189 5.853-.622.11-3.769.478-6.917.773-6.489.625-8.315 1.177-9.947 2.98-2.915 3.13-1.36 8.099 2.953 9.498 4.741 1.546 16.126-.11 22.46-3.24 3.225-1.582 8.315-6.368 9.831-9.275 1.593-2.982 3.302-8.724 3.302-11.006-.038-3.939-2.331-9.018-5.712-12.589-2.37-2.502-4.74-3.754-10.957-5.742-6.179-2.024-8.316-3.018-10.725-5.006-2.642-2.208-3.964-5.006-4.002-8.392 0-2.319.116-2.797 1.165-4.233 2.176-2.908 7.539-5.484 10.259-4.895 1.826.368 4.507 2.907 7.188 6.772s4.469 5.558 5.829 5.558c.466 0 1.671-.515 2.681-1.14 1.865-1.142 3.497-3.645 4.002-6.148.311-1.546-.777-4.454-3.341-8.834-3.031-5.116-6.295-7.545-11.891-8.907-4.002-.957-7.81-.92-11.035.11Zm-107.636 1.73c-5.09.368-7.966 1.288-9.947 3.166-.972.883-1.671 1.987-1.865 2.76-.311 1.51-1.088 11.89-2.176 29.042-.428 6.994-.972 15.828-1.205 19.656-.272 3.828-.35 8.981-.233 11.41.272 4.86.622 5.669 2.953 6.994 1.166.626 1.749.663 12.784.258 15.155-.59 22.46-1.031 24.364-1.546 1.982-.516 5.012-3.424 5.362-5.117.738-3.386-.272-6.478-2.487-7.545-1.515-.737-7.655-.405-10.841.589-2.176.662-10.841 1.435-16.476 1.435h-2.875l-.311-2.466c-.155-1.362-.155-4.417-.039-6.81.233-4.564.739-6.11 2.332-7.067.971-.626 7.732-1.877 11.735-2.245 4.74-.368 5.245-.552 6.994-2.061 3.031-2.65 3.186-6.221.427-8.245-1.515-1.105-3.691-1.215-7.81-.369-1.515.295-3.924.663-5.44.773-2.448.184-2.875.148-4.08-.662-2.137-1.362-2.603-3.092-2.021-7.73.855-6.81 1.477-9.865 2.021-10.38 1.632-1.472 8.393-2.43 17.602-2.43 4.819 0 5.985-.294 7.422-1.803.622-.626.777-1.362.777-3.534.039-2.355-.077-2.797-.893-3.644-.505-.515-1.788-1.214-2.837-1.546-3.614-1.14-14.222-1.546-23.237-.883ZM169.808 18.47c-.117.11-10.22.258-22.46.295-23.392.073-24.014.11-27.395 1.803-1.671.773-2.059 1.583-2.059 4.05 0 2.502.855 4.306 2.487 5.226 1.049.626 2.137.7 8.976.81 4.274.037 8.16.184 8.626.258.583.147 1.244.883 1.904 2.134 1.671 3.019 2.021 11.411 1.321 30.588-.699 19.325-.66 21.644.505 23.742 1.244 2.355 2.526 3.092 5.479 3.276 4.547.294 5.79-1.068 7.034-7.656.544-2.908.699-7.215.971-25.214.272-22.674.311-23.005 1.982-26.024.622-1.14 1.748-1.399 8.782-2.172 3.808-.404 7.344-.92 7.849-1.177 1.282-.59 3.147-4.013 3.147-5.78 0-1.14-.272-1.619-1.36-2.54-.777-.625-1.748-1.214-2.253-1.324-1.71-.331-3.342-.479-3.536-.295Zm333.164.479c-6.878.846-11.035 2.135-15.232 4.748-10.958 6.846-16.786 18.846-16.786 34.637-.039 3.865.155 6.11.66 8.098 2.409 9.496 9.909 15.827 22.382 18.809 4.43 1.03 11.502.957 16.437-.184 9.442-2.245 15.387-7.73 12.318-11.41-1.205-1.436-2.759-2.062-5.324-2.062-2.137 0-3.652.405-9.403 2.43-4.003 1.398-13.251-.185-17.486-2.982-4.041-2.65-6.995-8.834-6.995-14.65 0-2.724 1.632-10.27 2.837-13.03 1.787-4.196 5.129-7.803 9.404-10.233 2.875-1.62 5.051-2.245 10.102-2.945 5.402-.736 7.578-1.398 9.015-2.834 2.138-2.098 2.41-4.122.855-6.22-1.476-2.025-6.8-2.908-12.784-2.172Z" fill="#fff"/></svg>