<svg width="53" height="50" fill="none" xmlns="http://www.w3.org/2000/svg"><path d="M10.085.038c.008.023.048.15.084.285.087.309.41 1.278.632 1.893l.46 1.334c.428 1.238 1.56 4.447 2.066 5.863.397 1.104.548 1.682.693 2.617.067.422.073.906.078 5.72v1.5h3.323l.011-3.798c.009-3.752.009-3.797.07-4.111.07-.375.084-.418 1.52-4.516.615-1.76 1.18-3.368 1.253-3.579.072-.211.31-.89.528-1.508A135.052 135.052 0 0 0 21.378.07c.02-.042-.07-.045-1.637-.045-.914 0-1.685.008-1.719.016-.045.01-.067.05-.095.164-.017.082-.115.436-.21.784-.097.349-.26.938-.36 1.307-.1.37-.23.835-.282 1.03-.056.196-.157.566-.227.82l-.198.712c-.115.412-.246.89-.5 1.822-.132.486-.257.906-.283.93a.169.169 0 0 1-.106.048c-.103 0-.145-.111-.416-1.044a179.418 179.418 0 0 1-.534-1.848l-.238-.832c-.03-.095-.109-.367-.178-.608-.067-.24-.207-.715-.308-1.056-.559-1.901-.534-1.83-.713-2.007a1.357 1.357 0 0 0-.24-.174c-.14-.077-.14-.077-1.604-.085-1.325-.008-1.462-.002-1.445.035Zm15.36 4.684c-1.484.222-2.44.669-3.027 1.416-.218.277-.36.55-.478.919-.207.644-.198.42-.195 5.01 0 3.137.008 4.165.036 4.357.128.92.45 1.556 1.081 2.147.5.47 1.116.782 1.884.954.584.132.794.155 1.37.155.48 0 .586-.007.916-.07.498-.096.802-.18 1.143-.323 1.18-.483 1.886-1.3 2.169-2.504.061-.266.061-.266.061-4.677 0-4.41 0-4.41-.064-4.66-.218-.851-.752-1.546-1.585-2.069a4.705 4.705 0 0 0-1.595-.625c-.4-.082-1.27-.096-1.716-.03Zm.953 2.475c.419.066.687.235.832.52.182.349.171.093.171 4.405 0 3.822-.003 3.93-.056 4.128-.145.539-.497.872-1.028.97-.322.057-.758-.017-.995-.167-.199-.13-.38-.396-.486-.716-.073-.216-.073-.216-.084-3.795-.009-3.665.005-4.423.092-4.645.173-.446.436-.642.978-.716.22-.032.294-.029.576.016Zm6.553-2.03c-.025.023-.01 11.572.011 12.182.017.404.034.53.093.726.14.48.313.768.6 1.02.182.158.532.324.76.369.205.037.814.034 1.035-.003.21-.037.617-.16.835-.258.428-.188 1.8-1.001 2.052-1.213.061-.05.111-.087.117-.081.006.005.025.235.042.51.017.276.036.525.042.554.005.029.011.103.011.164l.003.113h2.878V5.148h-2.906l-.003 4.574c0 2.517-.011 4.88-.022 5.255l-.017.676-.12.222c-.277.515-.816.924-1.372 1.04a.763.763 0 0 1-.392.011c-.357-.066-.522-.193-.614-.47-.054-.166-.056-.261-.07-1.59-.009-.776-.017-3.282-.017-5.564V5.148l-1.465.002c-.804 0-1.472.008-1.48.016ZM18.178 23.831c-.022.005-2.048.016-4.499.024-2.635.008-4.65.023-4.933.042a9.14 9.14 0 0 0-3.828 1.078 9.34 9.34 0 0 0-1.957 1.418 9.033 9.033 0 0 0-1.523 1.838c-.6.94-1.04 2.033-1.254 3.127-.165.829-.154.528-.16 4.793 0 2.157-.008 4.122-.017 4.37-.027.793.02 1.32.19 2.126.428 2.018 1.63 3.906 3.351 5.264a9.779 9.779 0 0 0 5.006 2.052c.198.018 5.326.029 17.886.034 16.678.005 17.626.003 18.031-.042a11.158 11.158 0 0 0 1.596-.296c1.69-.452 3.303-1.423 4.454-2.68a9.278 9.278 0 0 0 1.999-3.354c.24-.7.39-1.403.452-2.116.037-.41.037-8.91.003-9.253a9.335 9.335 0 0 0-5.279-7.474 8.982 8.982 0 0 0-1.856-.658c-.852-.206-1.372-.245-3.501-.267-1.753-.015-24.102-.042-24.16-.026Zm-1.528 3.325c.042.026.087.08.098.119.028.095.025 1.914-.003 2.197-.025.227-.025.23-.11.246-.044.008-.692.015-1.436.015-.86 0-1.375.008-1.408.027-.034.016-.059.066-.067.14-.009.06-.02 3.348-.025 7.307-.011 7.733-.006 7.482-.146 7.516-.036.008-.629.01-1.319.005-1.255-.008-1.255-.008-1.375-.081-.14-.088-.268-.27-.33-.465-.039-.13-.041-.864-.047-7.194l-.003-7.049-.092-.076c-.09-.077-.09-.077-.95-.077-1.14-.002-1.786-.023-1.895-.066-.075-.029-.09-.05-.103-.158-.026-.161-.026-2.171-.003-2.282.022-.098.086-.137.262-.164.07-.008 2.094-.016 4.5-.013 4.226.003 4.376.005 4.452.053Zm13.618.029c.056.01.059.034.076.428.011.23.02 1.336.02 2.461 0 2.255 0 2.237.153 2.213.048-.008.3-.097.559-.203.623-.248 1.325-.47 1.613-.505.707-.092 1.294.093 1.785.555.246.232.367.404.506.716.383.85.422 1.484.405 6.285-.01 3.322-.01 3.333-.136 3.922-.19.89-.721 1.439-1.677 1.737-.445.14-.984.159-1.406.048-.475-.127-.819-.29-1.383-.663-.316-.211-.339-.209-.414.035-.034.102-.067.24-.078.298-.014.098-.028.113-.1.127-.127.023-2.519.018-2.558-.006-.028-.016-.034-1.814-.028-8.736l.006-8.712.628-.013c.7-.016 1.937-.008 2.03.013Zm10.958 4.133c.352.026.897.164 1.35.335.587.225 1.18.663 1.49 1.099.19.267.327.563.453.98.164.546.167.6.167 2.773v1.98l-.14.04c-.12.034-.477.04-2.392.042-1.24.003-2.283.013-2.32.024a.253.253 0 0 0-.122.09c-.054.068-.056.113-.056 1.63 0 1.439.002 1.57.05 1.716.162.488.372.62 1 .62.361 0 .545-.047.7-.177.223-.192.284-.348.416-1.088.086-.486.159-.7.287-.837.21-.227.462-.272 1.501-.274.428 0 .813.013.87.026.159.042.178.137.178.858 0 .658-.02.808-.184 1.352-.224.753-.509 1.218-1.048 1.714a3.494 3.494 0 0 1-1.68.859c-.422.09-1.193.1-1.643.026-.693-.116-1.406-.36-1.783-.607a3.634 3.634 0 0 1-1.442-1.939c-.162-.546-.157-.39-.157-4.415 0-3.698 0-3.698.065-3.975.078-.333.212-.66.422-1.017.13-.23.204-.311.53-.623.428-.401.643-.55 1.191-.803a4 4 0 0 1 .771-.274 3.926 3.926 0 0 1 1.526-.135Zm-20.694.407c.058.029.114.076.123.105.01.03.02 2.33.022 5.113.006 5.057.006 5.057.067 5.168.11.196.282.272.626.272.397 0 .699-.137 1.054-.478.14-.134.232-.253.304-.39l.104-.199.014-4.75c.014-4.749.014-4.749.084-4.8.134-.097.32-.11 1.405-.1 1.258.014 1.23.006 1.258.26.025.219.02 12.417-.003 12.57-.02.114-.025.121-.16.164-.12.04-.273.045-1.165.047-1.028 0-1.268-.015-1.338-.095-.017-.02-.045-.182-.059-.362-.034-.422-.053-.523-.115-.557-.067-.04-.198.03-.662.354-.785.547-1.543.866-2.166.914-.22.018-.6-.04-.827-.122-.196-.074-.48-.248-.592-.367-.232-.243-.448-.647-.548-1.027-.132-.5-.129-.357-.129-6.093 0-5.812-.005-5.543.137-5.617.104-.053.425-.068 1.456-.063.936.003 1.015.005 1.11.053Zm10.608 1.983c-.198.047-.464.172-.542.253a1.895 1.895 0 0 0-.14.18l-.08.119-.009 3.67c-.006 2.5.003 3.732.022 3.86.056.348.23.61.523.794.332.209.755.259 1.034.127a.987.987 0 0 0 .534-.66c.067-.243.09-2.971.053-5.728-.025-1.836-.025-1.823-.19-2.132-.185-.343-.433-.502-.819-.515a1.842 1.842 0 0 0-.386.032Zm9.145.1c-.252.1-.37.185-.484.352-.137.192-.16.37-.16 1.246v.798l.096.1.095.098.807.008c.791.008.808.005.931-.053.106-.053.129-.077.148-.167.011-.058.02-.48.014-.937-.008-.8-.011-.837-.072-.961a.875.875 0 0 0-.445-.444c-.173-.08-.215-.087-.483-.095-.255-.005-.313.003-.447.055Z" fill="#2c3554"/></svg>